# xmcd
#
# Track frame offsets:
#	150
#	18925
#	31806
#	51690
#	62046
#	79415
#	87782
#	103627
#	124566
#	156493
#	175313
#	187499
#	204978
#
# Disc length: 3083 seconds
#
# Revision: 2
# Processed by: cddbd v1.5.2PL0 Copyright (c) Steve Scherf et al.
# Submitted via: audiograbber 1.83.01
#
DISCID=b40c090d
DTITLE=Michael Kiwanuka - Kiwanuka
DYEAR=2019
DGENRE=Soul
TTITLE0=You Ain't The Problem
TTITLE1=Rolling
TTITLE2=I've Been Dazed
TTITLE3=Piano Joint (This Kind Of Love) Intro
TTITLE4=Piano Joint (This Kind Of Love)
TTITLE5=Another Human Being (Interlude)
TTITLE6=Living In Denial
TTITLE7=Hero
TTITLE8=Hard To Say Goodbye
TTITLE9=Final Days
TTITLE10=Interlude (Loving The People)
TTITLE11=Solid Ground
TTITLE12=Light
EXTD=YEAR: 2019\n\nMARO\n
EXTT0=
EXTT1=
EXTT2=
EXTT3=
EXTT4=
EXTT5=
EXTT6=
EXTT7=
EXTT8=
EXTT9=
EXTT10=
EXTT11=
EXTT12=
PLAYORDER=
